<?xml version="1.0" standalone="no"?>
<!DOCTYPE svg PUBLIC "-//W3C//DTD SVG 20010904//EN"
 "http://www.w3.org/TR/2001/REC-SVG-20010904/DTD/svg10.dtd">
<svg version="1.0" xmlns="http://www.w3.org/2000/svg"
 width="153.000000pt" height="153.000000pt" viewBox="0 0 153.000000 153.000000"
 preserveAspectRatio="xMidYMid meet">
<metadata>
Created by potrace 1.14, written by Peter Selinger 2001-2017
</metadata>
<g transform="translate(0.000000,153.000000) scale(0.100000,-0.100000)"
fill="#000000" stroke="none">
<path d="M0 765 l0 -765 765 0 765 0 0 765 0 765 -765 0 -765 0 0 -765z m1320
384 c0 -4 -4 -11 -10 -14 -5 -3 -10 -1 -10 4 0 6 -6 11 -14 11 -8 0 -17 4 -20
8 -3 5 8 6 25 4 16 -2 29 -8 29 -13z m-1035 1 c3 6 11 8 16 5 17 -11 9 -20
-19 -20 -17 -1 -29 5 -29 12 0 9 4 10 13 2 8 -7 14 -7 19 1z m-155 -4 c0 -2
-7 -7 -16 -10 -8 -3 -12 -2 -9 4 6 10 25 14 25 6z m1250 -2 c0 -8 -19 -13 -24
-6 -3 5 1 9 9 9 8 0 15 -2 15 -3z m-40 -14 c0 -5 -5 -10 -11 -10 -5 0 -7 5 -4
10 3 6 8 10 11 10 2 0 4 -4 4 -10z m-21 -23 c23 3 41 1 45 -6 5 -7 -3 -9 -24
-5 -23 5 -34 2 -45 -12 -8 -11 -14 -14 -15 -6 0 6 -3 11 -7 10 -9 -3 -13 6
-13 30 1 16 1 16 10 0 8 -12 19 -15 49 -11z m-1230 -3 c-12 -15 -11 -16 11 -9
20 6 23 5 13 -5 -6 -7 -19 -10 -28 -6 -14 5 -15 9 -5 21 7 8 15 15 17 15 3 0
-1 -7 -8 -16z m1151 1 c0 -2 -9 -3 -19 -2 -11 0 -18 5 -15 9 4 6 34 0 34 -7z
m-1063 -1 c-3 -3 -12 -4 -19 -1 -8 3 -5 6 6 6 11 1 17 -2 13 -5z m-40 -29 c-4
-8 -14 -14 -24 -14 -17 1 -17 2 0 6 9 2 17 12 17 20 0 9 3 14 6 10 4 -3 4 -13
1 -22z m209 -2 c-10 -11 -19 -7 -22 10 -2 15 0 16 12 6 8 -6 12 -14 10 -16z
m834 7 c-12 -8 -9 -10 13 -10 17 0 26 -4 22 -10 -4 -6 -11 -8 -16 -5 -5 4 -10
-2 -10 -12 -1 -17 -2 -17 -6 0 -2 9 -9 17 -14 17 -6 0 -7 -5 -3 -12 4 -7 3 -8
-4 -4 -15 9 3 46 21 46 7 0 6 -4 -3 -10z m-988 -21 c21 13 22 13 9 -2 -12 -15
-61 -20 -61 -6 0 14 14 18 22 7 6 -10 12 -10 30 1z m154 -21 c4 -7 3 -8 -4 -4
-7 4 -12 2 -12 -5 0 -7 -3 -10 -6 -6 -6 5 3 27 11 27 2 0 7 -5 11 -12z m1032
1 c-2 -6 5 -13 15 -14 12 -2 17 1 13 10 -3 9 0 12 9 8 8 -3 12 -10 8 -17 -4
-6 -8 -15 -8 -20 0 -17 -25 -18 -31 -2 -3 9 -10 14 -14 11 -7 -4 -7 13 -1 33
3 8 11 0 9 -9z m-218 -14 c0 -2 -9 -3 -19 -2 -11 0 -18 5 -15 9 4 6 34 0 34
-7z m160 -1 c0 -10 6 -14 14 -11 10 4 13 1 9 -9 -7 -20 -15 -17 -36 11 -15 22
-16 25 -2 25 8 0 15 -7 15 -16z m-855 -33 c-9 -16 -25 -3 -18 15 4 10 9 12 15
6 6 -6 7 -15 3 -21z m-361 10 c11 -4 15 -10 10 -13 -5 -4 -18 0 -29 8 -20 15
-12 17 19 5z m141 -1 c-3 -5 -12 -10 -18 -10 -7 0 -6 4 3 10 19 12 23 12 15 0z
m855 0 c-12 -8 -9 -10 13 -10 17 0 26 -4 22 -10 -4 -6 -11 -8 -16 -5 -5 4 -10
-2 -10 -12 -1 -17 -2 -17 -6 0 -2 9 -9 17 -14 17 -6 0 -7 -5 -3 -12 4 -7 3 -8
-4 -4 -15 9 3 46 21 46 7 0 6 -4 -3 -10z m-666 -16 c3 -8 2 -12 -4 -9 -6 3
-10 10 -10 16 0 14 7 11 14 -7z m-271 -37 c-2 -4 -9 -5 -14 -1 -5 3 -7 10 -4
15 4 5 1 9 -5 9 -6 0 -8 5 -5 11 5 6 12 4 20 -8 7 -10 11 -21 8 -26z m340 25
c15 -16 15 -18 -1 -18 -10 0 -18 8 -18 18 0 10 1 18 2 18 0 0 8 -8 17 -18z
m871 -14 c-13 -14 -20 -15 -31 -7 -15 13 -18 23 -4 14 5 -3 12 -2 15 3 3 5 12
9 21 9 13 0 13 -3 -1 -19z m-1110 1 c-2 -4 2 -10 8 -13 7 -3 3 -3 -10 0 -13 3
-28 1 -35 -4 -8 -7 -16 -5 -26 5 -12 13 -11 14 8 8 11 -3 21 -3 21 2 0 5 9 9
19 9 11 0 18 -3 15 -7z m1056 5 c0 -8 -19 -13 -24 -6 -3 5 1 9 9 9 8 0 15 -2
15 -3z m-227 -33 c-4 -3 -12 -10 -16 -16 -5 -6 -7 -3 -3 8 5 15 -5 22 -27 18
-5 -1 -6 3 -2 8 4 7 14 6 30 -1 14 -6 22 -14 18 -17z m-682 -34 c-8 -8 -15 -7
-23 2 -11 10 -10 11 5 6 13 -6 17 -1 18 21 2 26 2 26 6 5 3 -13 0 -28 -6 -34z
m112 30 c-4 -6 0 -8 9 -4 15 5 38 -9 38 -25 0 -4 -8 -8 -17 -7 -11 0 -13 3 -5
6 6 2 10 9 7 13 -3 5 -12 7 -19 4 -7 -3 -18 1 -24 9 -9 11 -8 14 3 14 8 0 11
-5 8 -10z m795 -4 c7 -7 9 -13 4 -13 -4 0 -16 6 -26 13 -14 10 -15 14 -4 14 7
0 19 -6 26 -14z m-298 -3 c-12 -8 -9 -10 13 -10 17 0 26 -4 22 -10 -4 -6 -11
-8 -16 -5 -5 4 -10 -2 -10 -12 -1 -17 -2 -17 -6 0 -2 9 -9 17 -14 17 -6 0 -7
-5 -3 -12 4 -7 3 -8 -4 -4 -15 9 3 46 21 46 7 0 6 -4 -3 -10z m-560 -9 c0 -5
-7 -11 -14 -14 -10 -4 -13 -1 -9 9 6 15 23 19 23 5z m844 -10 c3 -5 -2 -15
-12 -22 -15 -12 -16 -12 -5 2 7 9 10 19 6 22 -3 4 -4 7 0 7 3 0 8 -4 11 -9z
m-91 -26 c-3 -9 -8 -14 -10 -11 -3 3 -2 9 2 15 9 16 15 13 8 -4z m47 3 c0 -4
-4 -8 -9 -8 -6 0 -12 4 -15 8 -3 5 1 9 9 9 8 0 15 -4 15 -9z m-872 -50 c-11
-11 -16 -24 -12 -31 5 -9 4 -9 -6 0 -7 7 -9 17 -4 25 17 26 15 48 -4 42 -14
-5 -14 -4 -2 5 10 7 19 5 30 -7 14 -15 14 -18 -2 -34z m52 42 c0 -5 -4 -10
-10 -10 -5 0 -10 5 -10 10 0 6 5 10 10 10 6 0 10 -4 10 -10z m145 0 c3 -5 1
-10 -4 -10 -6 0 -11 5 -11 10 0 6 2 10 4 10 3 0 8 -4 11 -10z m415 -7 c0 -3
-7 -3 -15 1 -8 3 -21 -2 -30 -10 -8 -9 -15 -11 -15 -5 0 14 31 30 47 24 7 -3
13 -7 13 -10z m163 -7 c4 -10 1 -13 -9 -9 -15 6 -19 23 -5 23 5 0 11 -7 14
-14z m94 -11 c2 -1 -16 -19 -39 -41 -23 -21 -37 -32 -30 -23 6 9 8 19 4 23 -4
4 -2 7 3 6 22 -5 27 1 14 18 -13 15 -12 16 4 3 17 -13 18 -12 11 15 -7 27 -6
28 12 14 10 -8 20 -15 21 -15z m-664 -10 c-3 -9 -8 -14 -10 -11 -3 3 -2 9 2
15 9 16 15 13 8 -4z m348 -14 c-16 -10 -22 -70 -9 -87 4 -6 2 -11 -7 -11 -8 0
-12 4 -9 8 2 4 0 10 -6 14 -5 3 -10 11 -10 16 0 6 6 7 13 3 8 -5 8 -2 -2 9
-11 13 -11 17 -1 17 8 0 10 3 7 7 -9 8 12 33 27 33 6 0 5 -4 -3 -9z m39 5 c0
-3 -4 -8 -10 -11 -5 -3 -10 -1 -10 4 0 6 5 11 10 11 6 0 10 -2 10 -4z m-664
-42 c2 -12 -1 -13 -12 -3 -7 6 -11 16 -8 21 7 11 17 3 20 -18z m264 10 c0 -8
-5 -12 -10 -9 -6 4 -8 11 -5 16 9 14 15 11 15 -7z m367 -16 c-3 -7 -5 -2 -5
12 0 14 2 19 5 13 2 -7 2 -19 0 -25z m228 23 c3 -5 0 -13 -6 -17 -7 -4 -9 -3
-5 4 3 5 0 13 -6 15 -9 4 -10 6 -1 6 6 1 14 -3 18 -8z m-35 -31 c0 -5 -2 -10
-4 -10 -3 0 -8 5 -11 10 -3 6 -1 10 4 10 6 0 11 -4 11 -10z m-865 -10 c3 -5 1
-10 -4 -10 -6 0 -11 5 -11 10 0 6 2 10 4 10 3 0 8 -4 11 -10z m858 -41 c-68
-90 -84 -107 -80 -84 2 11 9 19 15 18 11 -3 17 17 13 41 -3 13 20 36 31 30 5
-3 18 6 29 20 38 48 31 27 -8 -25z m-818 22 c-3 -6 -11 -11 -16 -11 -5 0 -4 6
3 14 14 16 24 13 13 -3z m222 0 c-1 -11 -6 -17 -14 -14 -10 4 -11 9 -2 19 15
19 18 18 16 -5z m422 -27 c-5 -6 -7 -13 -4 -16 3 -2 -2 -5 -10 -5 -13 0 -13 3
1 18 10 11 12 19 5 24 -6 3 -11 11 -11 18 0 6 6 2 14 -9 9 -12 11 -23 5 -30z
m-721 1 c-3 -3 -9 2 -12 12 -6 14 -5 15 5 6 7 -7 10 -15 7 -18z m277 3 c5 -4
0 -6 -12 -6 -13 1 -19 7 -16 15 3 8 8 10 12 6 3 -4 10 -11 16 -15z m533 -8
c-7 -10 -14 -17 -17 -15 -4 4 18 35 25 35 2 0 -1 -9 -8 -20z m-833 -10 c3 -6
-1 -7 -9 -4 -18 7 -21 14 -7 14 6 0 13 -4 16 -10z m-28 -32 c0 -13 -1 -17 -4
-10 -3 6 -10 9 -16 5 -7 -4 -6 1 2 10 17 21 17 21 18 -5z m53 2 c-13 -11 -28
-20 -34 -19 -6 0 -6 3 2 6 6 2 9 10 6 15 -4 7 -2 8 4 4 7 -4 12 -2 12 3 0 6 7
11 17 11 13 0 11 -4 -7 -20z m160 17 c0 -2 -9 -12 -20 -22 -24 -21 -27 -14 -4
9 15 15 24 20 24 13z m664 -5 c3 -5 -1 -9 -9 -9 -8 0 -12 4 -9 9 3 4 7 8 9 8
2 0 6 -4 9 -8z m-97 -8 c-3 -3 -12 -4 -19 -1 -8 3 -5 6 6 6 11 1 17 -2 13 -5z
m-817 -23 c0 -5 -7 -12 -16 -15 -14 -5 -15 -4 -4 9 14 17 20 19 20 6z m1225 0
c3 -5 0 -13 -6 -17 -7 -4 -9 -3 -5 4 3 5 0 13 -6 15 -9 4 -10 6 -1 6 6 1 14
-3 18 -8z m-935 -13 c0 -4 -4 -8 -10 -8 -5 0 -10 -8 -11 -17 0 -15 -2 -15 -8
2 -5 11 -7 23 -5 26 5 9 34 7 34 -3z m587 6 c-8 -9 -47 -13 -51 -6 -2 4 9 8
25 8 17 1 28 0 26 -2z m167 -15 c-3 -6 -1 -15 6 -19 8 -5 3 -7 -13 -7 -23 0
-24 1 -9 18 18 21 27 25 16 8z m-1026 -8 c11 -7 10 -9 -3 -14 -9 -4 -14 -3
-10 2 3 5 -1 12 -7 14 -7 3 -8 6 -3 6 6 0 16 -3 23 -8z m882 -4 c9 -7 15 -18
14 -24 -1 -7 -2 -18 -3 -24 0 -5 -6 -7 -12 -3 -8 5 -8 9 1 14 9 6 7 11 -9 19
-11 6 -24 11 -27 10 -3 0 -9 3 -12 7 -4 4 -1 4 6 0 6 -4 12 -2 12 3 0 14 11
13 30 -2z m325 -15 c-3 -3 -11 0 -18 7 -9 10 -8 11 6 5 10 -3 15 -9 12 -12z
m-1265 -17 c-7 -8 -18 -15 -24 -15 -6 0 -2 7 8 15 25 19 32 19 16 0z m21 -8
c-10 -9 -11 -8 -5 6 3 10 9 15 12 12 3 -3 0 -11 -7 -18z m1149 12 c0 -5 5 -7
10 -4 6 3 10 -3 10 -15 0 -12 -5 -20 -12 -18 -14 5 -31 48 -18 48 6 0 10 -5
10 -11z m137 -3 c-3 -7 0 -19 6 -25 8 -8 8 -11 -1 -11 -7 0 -12 6 -12 13 0 8
-4 7 -10 -3 -8 -12 -10 -12 -11 5 0 20 -1 20 -8 1 -7 -19 -8 -19 -13 2 -4 12
-2 20 2 17 5 -3 11 -1 15 5 10 15 38 12 32 -4z m-1222 -43 c0 -1 -11 0 -23 4
-13 3 -22 13 -22 24 0 17 2 16 23 -4 13 -12 23 -23 22 -24z m1005 43 c0 -2 -8
-10 -17 -17 -16 -13 -17 -12 -4 4 13 16 21 21 21 13z m-863 -38 c2 -17 0 -19
-7 -8 -5 8 -6 18 -4 22 8 12 10 10 11 -14z m38 12 c-3 -5 -12 -10 -18 -10 -7
0 -6 4 3 10 19 12 23 12 15 0z m985 -22 c10 -21 10 -21 -3 -6 -8 10 -18 14
-22 10 -5 -4 -5 -1 -1 6 10 17 14 15 26 -10z m-160 -3 c0 -11 -29 -11 -33 -1
-4 10 1 12 14 9 10 -3 19 -7 19 -8z m-1110 -10 c0 -8 -4 -15 -10 -15 -5 0 -10
7 -10 15 0 8 5 15 10 15 6 0 10 -7 10 -15z m1320 8 c0 -10 -20 -40 -20 -31 0
3 -3 13 -6 22 -4 11 -1 16 10 16 9 0 16 -3 16 -7z m-1346 -29 c3 -8 2 -12 -4
-9 -6 3 -10 10 -10 16 0 14 7 11 14 -7z m1136 1 c0 -8 -9 -19 -20 -25 -16 -9
-18 -8 -14 5 3 8 10 12 15 9 5 -3 9 2 9 10 0 9 2 16 5 16 3 0 5 -7 5 -15z
m211 -24 c-11 -21 -27 -41 -36 -45 -9 -3 -14 -2 -10 3 3 5 -1 12 -7 15 -7 4
-3 4 10 2 15 -3 22 0 19 7 -2 7 -15 11 -28 10 -16 -1 -18 0 -6 4 11 3 16 11
13 19 -3 8 -2 14 3 14 5 0 12 -10 15 -22 6 -23 7 -23 22 5 23 42 27 32 5 -12z
m-1201 9 c-8 -5 -19 -10 -25 -10 -5 0 -3 5 5 10 8 5 20 10 25 10 6 0 3 -5 -5
-10z m-76 -12 c-3 -4 7 -25 22 -45 14 -21 17 -27 5 -14 -19 21 -26 20 -22 -1
0 -4 -15 2 -35 14 -26 15 -32 23 -22 29 7 5 9 9 5 9 -21 0 5 16 27 16 13 0 22
-4 20 -8z m1075 -5 c-12 -15 -12 -16 4 -10 14 5 16 3 8 -12 -6 -10 -7 -22 -3
-27 4 -5 -3 0 -16 10 -21 18 -21 20 -6 38 21 23 31 24 13 1z m56 5 c25 -11 34
-28 15 -28 -5 0 -10 4 -10 8 0 5 -10 14 -22 20 -31 14 -16 15 17 0z m-1000
-16 c-3 -3 -11 0 -18 7 -9 10 -8 11 6 5 10 -3 15 -9 12 -12z m978 -17 c-3 -9
-8 -14 -10 -11 -3 3 -2 9 2 15 9 16 15 13 8 -4z"/>
<path d="M1390 1010 c0 -5 5 -10 11 -10 5 0 7 5 4 10 -3 6 -8 10 -11 10 -2 0
-4 -4 -4 -10z"/>
<path d="M1097 713 c-4 -3 -7 -11 -7 -17 0 -6 5 -5 12 2 6 6 9 14 7 17 -3 3
-9 2 -12 -2z"/>
<path d="M102 464 c-10 -11 -8 -15 7 -24 24 -12 34 -1 17 21 -9 14 -13 14 -24
3z"/>
</g>
</svg>
